<svg width="1454" height="550" viewBox="0 0 1454 550" fill="none" xmlns="http://www.w3.org/2000/svg">
<circle cx="721" cy="275" r="274.75" stroke="white" stroke-width="0.5"/>
<circle cx="275" cy="275" r="274.75" stroke="white" stroke-width="0.5"/>
<circle cx="275" cy="275" r="224.75" stroke="white" stroke-width="0.5"/>
<circle cx="275" cy="275" r="149.75" stroke="white" stroke-width="0.5"/>
<circle cx="1179" cy="275" r="274.75" stroke="white" stroke-width="0.5"/>
<circle cx="1179" cy="275" r="224.75" stroke="white" stroke-width="0.5"/>
<circle cx="1179" cy="275" r="149.75" stroke="white" stroke-width="0.5"/>
<path d="M842.828 278.168C843.019 277.65 843.115 277.391 843.209 277.27C843.609 276.752 844.391 276.752 844.791 277.27C844.885 277.391 844.981 277.65 845.172 278.168L850.553 292.709C850.592 292.814 850.611 292.867 850.635 292.915C850.732 293.11 850.89 293.268 851.085 293.365C851.133 293.389 851.186 293.408 851.291 293.447L865.832 298.828C866.35 299.019 866.609 299.115 866.73 299.209C867.248 299.609 867.248 300.391 866.73 300.791C866.609 300.885 866.35 300.981 865.832 301.172L851.291 306.553C851.186 306.592 851.133 306.611 851.085 306.635C850.89 306.732 850.732 306.89 850.635 307.085C850.611 307.133 850.592 307.186 850.553 307.291L845.172 321.832C844.981 322.35 844.885 322.609 844.791 322.73C844.391 323.248 843.609 323.248 843.209 322.73C843.115 322.609 843.019 322.35 842.828 321.832L837.447 307.291C837.408 307.186 837.389 307.133 837.365 307.085C837.268 306.89 837.11 306.732 836.915 306.635C836.867 306.611 836.814 306.592 836.709 306.553L822.168 301.172C821.65 300.981 821.391 300.885 821.27 300.791C820.752 300.391 820.752 299.609 821.27 299.209C821.391 299.115 821.65 299.019 822.168 298.828L836.709 293.447C836.814 293.408 836.867 293.389 836.915 293.365C837.11 293.268 837.268 293.11 837.365 292.915C837.389 292.867 837.408 292.814 837.447 292.709L842.828 278.168Z" fill="white"/>
<path d="M396 187C397.167 187 398.333 187.25 399.5 187.75C400.833 188.25 401.917 189.083 402.75 190.25L471.75 293.75L465 293.5L534.25 190.25C536.083 187.75 538.333 186.667 541 187C543 187 544.667 187.75 546 189.25C547.5 190.583 548.25 192.333 548.25 194.5V354.5C548.25 356.5 547.5 358.25 546 359.75C544.5 361.25 542.667 362 540.5 362C538.167 362 536.25 361.25 534.75 359.75C533.25 358.25 532.5 356.5 532.5 354.5V209.75L537 210.25L473.75 306C473.25 307 472.5 307.833 471.5 308.5C470.5 309 469.333 309.167 468 309C466.833 309.167 465.667 309 464.5 308.5C463.5 307.833 462.667 307 462 306L398.5 209.25L403.25 206V354.5C403.25 356.5 402.5 358.25 401 359.75C399.667 361.25 397.917 362 395.75 362C393.583 362 391.833 361.25 390.5 359.75C389.167 358.25 388.5 356.5 388.5 354.5V194.5C388.5 192.5 389.167 190.75 390.5 189.25C392 187.75 393.833 187 396 187ZM649.287 364.5C636.454 364.5 625.12 361.75 615.287 356.25C605.454 350.75 597.787 343.083 592.287 333.25C586.787 323.417 584.037 311.917 584.037 298.75C584.037 284.583 586.787 272.5 592.287 262.5C597.954 252.5 605.204 244.833 614.037 239.5C623.037 234 632.537 231.25 642.537 231.25C649.87 231.25 656.954 232.583 663.787 235.25C670.787 237.75 676.954 241.583 682.287 246.75C687.787 251.75 692.12 257.917 695.287 265.25C698.62 272.583 700.454 281.083 700.787 290.75C700.62 292.75 699.787 294.5 698.287 296C696.787 297.333 695.037 298 693.037 298H592.787L589.787 284.5H688.287L685.037 287.5V282.5C684.37 274.667 681.87 268 677.537 262.5C673.204 257 667.954 252.833 661.787 250C655.62 247.167 649.204 245.75 642.537 245.75C637.537 245.75 632.37 246.75 627.037 248.75C621.87 250.75 617.12 253.917 612.787 258.25C608.62 262.417 605.204 267.833 602.537 274.5C599.87 281 598.537 288.75 598.537 297.75C598.537 307.583 600.537 316.5 604.537 324.5C608.537 332.5 614.287 338.833 621.787 343.5C629.454 348.167 638.537 350.5 649.037 350.5C654.87 350.5 660.12 349.667 664.787 348C669.454 346.333 673.537 344.167 677.037 341.5C680.537 338.667 683.454 335.75 685.787 332.75C687.62 331.25 689.454 330.5 691.287 330.5C692.954 330.5 694.37 331.167 695.537 332.5C696.87 333.833 697.537 335.333 697.537 337C697.537 339 696.704 340.75 695.037 342.25C690.037 348.25 683.537 353.5 675.537 358C667.537 362.333 658.787 364.5 649.287 364.5ZM749.395 354.5C749.395 356.5 748.645 358.25 747.145 359.75C745.645 361.25 743.895 362 741.895 362C739.728 362 737.895 361.25 736.395 359.75C735.061 358.25 734.395 356.5 734.395 354.5V184.5C734.395 182.5 735.145 180.75 736.645 179.25C738.145 177.75 739.895 177 741.895 177C744.061 177 745.811 177.75 747.145 179.25C748.645 180.75 749.395 182.5 749.395 184.5V354.5ZM907.07 298C907.07 310.667 904.32 322.083 898.82 332.25C893.32 342.25 885.82 350.167 876.32 356C866.82 361.667 855.987 364.5 843.82 364.5C831.987 364.5 821.237 361.667 811.57 356C802.07 350.167 794.487 342.25 788.82 332.25C783.32 322.083 780.57 310.667 780.57 298C780.57 285.167 783.32 273.75 788.82 263.75C794.487 253.75 802.07 245.833 811.57 240C821.237 234.167 831.987 231.25 843.82 231.25C855.987 231.25 866.82 234.167 876.32 240C885.82 245.833 893.32 253.75 898.82 263.75C904.32 273.75 907.07 285.167 907.07 298ZM892.07 298C892.07 287.833 889.987 278.833 885.82 271C881.654 263 875.904 256.75 868.57 252.25C861.404 247.583 853.154 245.25 843.82 245.25C834.82 245.25 826.654 247.583 819.32 252.25C811.987 256.75 806.154 263 801.82 271C797.654 278.833 795.57 287.833 795.57 298C795.57 308.167 797.654 317.167 801.82 325C806.154 332.833 811.987 339.083 819.32 343.75C826.654 348.25 834.82 350.5 843.82 350.5C853.154 350.5 861.404 348.25 868.57 343.75C875.904 339.083 881.654 332.833 885.82 325C889.987 317.167 892.07 308.167 892.07 298ZM992.199 231.25C999.699 231.25 1006.62 232.583 1012.95 235.25C1019.28 237.75 1024.78 241.083 1029.45 245.25C1034.28 249.25 1038.03 253.583 1040.7 258.25C1043.37 262.75 1044.7 267.083 1044.7 271.25L1040.45 265.25V242C1040.45 239.833 1041.12 238 1042.45 236.5C1043.95 235 1045.78 234.25 1047.95 234.25C1050.28 234.25 1052.12 235 1053.45 236.5C1054.78 238 1055.45 239.833 1055.45 242V350.25C1055.45 363.583 1052.7 374.833 1047.2 384C1041.7 393.167 1034.2 400.083 1024.7 404.75C1015.37 409.583 1004.7 412 992.699 412C986.866 412 980.699 411.25 974.199 409.75C967.866 408.25 962.366 406.333 957.699 404C953.199 401.667 950.699 399.25 950.199 396.75C948.866 395.25 948.199 393.75 948.199 392.25C948.366 390.917 949.116 389.75 950.449 388.75C952.116 387.583 953.866 387.417 955.699 388.25C957.533 389.25 960.283 390.5 963.949 392C965.616 392.5 967.866 393.25 970.699 394.25C973.533 395.25 976.866 396.083 980.699 396.75C984.699 397.583 988.866 398 993.199 398C1008.2 398 1019.78 393.667 1027.95 385C1036.28 376.5 1040.45 365.25 1040.45 351.25V327.25L1043.2 328C1041.7 334 1039.2 339.25 1035.7 343.75C1032.37 348.25 1028.37 352.083 1023.7 355.25C1019.03 358.25 1013.95 360.5 1008.45 362C1003.12 363.667 997.783 364.5 992.449 364.5C980.949 364.5 970.616 361.583 961.449 355.75C952.283 349.917 944.949 342 939.449 332C934.116 322 931.449 310.583 931.449 297.75C931.449 285.083 934.116 273.75 939.449 263.75C944.949 253.583 952.199 245.667 961.199 240C970.366 234.167 980.699 231.25 992.199 231.25ZM993.949 245.25C984.783 245.25 976.533 247.583 969.199 252.25C962.033 256.75 956.366 263 952.199 271C948.199 278.833 946.199 287.75 946.199 297.75C946.199 307.75 948.199 316.75 952.199 324.75C956.366 332.75 962.033 339.083 969.199 343.75C976.533 348.25 984.783 350.5 993.949 350.5C1003.12 350.5 1011.28 348.25 1018.45 343.75C1025.62 339.25 1031.28 333.083 1035.45 325.25C1039.62 317.25 1041.7 308.083 1041.7 297.75C1041.7 287.417 1039.62 278.333 1035.45 270.5C1031.28 262.5 1025.62 256.333 1018.45 252C1011.28 247.5 1003.12 245.25 993.949 245.25Z" fill="white"/>
</svg>
