<svg width="1171" height="445" viewBox="0 0 1171 445" fill="none" xmlns="http://www.w3.org/2000/svg">
<path d="M488.75 222.5C488.75 345.224 379.418 444.75 244.5 444.75C109.582 444.75 0.25 345.224 0.25 222.5C0.25 99.7764 109.582 0.25 244.5 0.25C379.418 0.25 488.75 99.7764 488.75 222.5Z" stroke="white" stroke-width="0.5"/>
<path d="M823.75 222.5C823.75 345.224 714.418 444.75 579.5 444.75C444.582 444.75 335.25 345.224 335.25 222.5C335.25 99.7764 444.582 0.25 579.5 0.25C714.418 0.25 823.75 99.7764 823.75 222.5Z" stroke="white" stroke-width="0.5"/>
<path d="M1170.75 222.5C1170.75 345.224 1061.42 444.75 926.5 444.75C791.582 444.75 682.25 345.224 682.25 222.5C682.25 99.7764 791.582 0.25 926.5 0.25C1061.42 0.25 1170.75 99.7764 1170.75 222.5Z" stroke="white" stroke-width="0.5"/>
<path d="M1066.75 222.5C1066.75 292.757 1004.2 349.75 927 349.75C849.796 349.75 787.25 292.757 787.25 222.5C787.25 152.243 849.796 95.25 927 95.25C1004.2 95.25 1066.75 152.243 1066.75 222.5Z" stroke="white" stroke-width="0.5"/>
<path d="M1106.75 223C1106.75 313.415 1026.3 386.75 927 386.75C827.704 386.75 747.25 313.415 747.25 223C747.25 132.585 827.704 59.25 927 59.25C1026.3 59.25 1106.75 132.585 1106.75 223Z" stroke="white" stroke-width="0.5"/>
<path d="M423.75 223C423.75 313.416 343.519 386.75 244.5 386.75C145.481 386.75 65.25 313.416 65.25 223C65.25 132.584 145.481 59.25 244.5 59.25C343.519 59.25 423.75 132.584 423.75 223Z" stroke="white" stroke-width="0.5"/>
<path d="M383.75 222.5C383.75 292.758 321.427 349.75 244.5 349.75C167.573 349.75 105.25 292.758 105.25 222.5C105.25 152.242 167.573 95.25 244.5 95.25C321.427 95.25 383.75 152.242 383.75 222.5Z" stroke="white" stroke-width="0.5"/>
<path d="M350.8 155C351.733 155 352.667 155.2 353.6 155.6C354.667 156 355.533 156.667 356.2 157.6L411.4 240.4L406 240.2L461.4 157.6C462.867 155.6 464.667 154.733 466.8 155C468.4 155 469.733 155.6 470.8 156.8C472 157.867 472.6 159.267 472.6 161V289C472.6 290.6 472 292 470.8 293.2C469.6 294.4 468.133 295 466.4 295C464.533 295 463 294.4 461.8 293.2C460.6 292 460 290.6 460 289V173.2L463.6 173.6L413 250.2C412.6 251 412 251.667 411.2 252.2C410.4 252.6 409.467 252.733 408.4 252.6C407.467 252.733 406.533 252.6 405.6 252.2C404.8 251.667 404.133 251 403.6 250.2L352.8 172.8L356.6 170.2V289C356.6 290.6 356 292 354.8 293.2C353.733 294.4 352.333 295 350.6 295C348.867 295 347.467 294.4 346.4 293.2C345.333 292 344.8 290.6 344.8 289V161C344.8 159.4 345.333 158 346.4 156.8C347.6 155.6 349.067 155 350.8 155ZM553.43 297C543.163 297 534.096 294.8 526.23 290.4C518.363 286 512.23 279.867 507.83 272C503.43 264.133 501.23 254.933 501.23 244.4C501.23 233.067 503.43 223.4 507.83 215.4C512.363 207.4 518.163 201.267 525.23 197C532.43 192.6 540.03 190.4 548.03 190.4C553.896 190.4 559.563 191.467 565.03 193.6C570.63 195.6 575.563 198.667 579.83 202.8C584.23 206.8 587.696 211.733 590.23 217.6C592.896 223.467 594.363 230.267 594.63 238C594.496 239.6 593.83 241 592.63 242.2C591.43 243.267 590.03 243.8 588.43 243.8H508.23L505.83 233H584.63L582.03 235.4V231.4C581.496 225.133 579.496 219.8 576.03 215.4C572.563 211 568.363 207.667 563.43 205.4C558.496 203.133 553.363 202 548.03 202C544.03 202 539.896 202.8 535.63 204.4C531.496 206 527.696 208.533 524.23 212C520.896 215.333 518.163 219.667 516.03 225C513.896 230.2 512.83 236.4 512.83 243.6C512.83 251.467 514.43 258.6 517.63 265C520.83 271.4 525.43 276.467 531.43 280.2C537.563 283.933 544.83 285.8 553.23 285.8C557.896 285.8 562.096 285.133 565.83 283.8C569.563 282.467 572.83 280.733 575.63 278.6C578.43 276.333 580.763 274 582.63 271.6C584.096 270.4 585.563 269.8 587.03 269.8C588.363 269.8 589.496 270.333 590.43 271.4C591.496 272.467 592.03 273.667 592.03 275C592.03 276.6 591.363 278 590.03 279.2C586.03 284 580.83 288.2 574.43 291.8C568.03 295.267 561.03 297 553.43 297ZM633.516 289C633.516 290.6 632.916 292 631.716 293.2C630.516 294.4 629.116 295 627.516 295C625.782 295 624.316 294.4 623.116 293.2C622.049 292 621.516 290.6 621.516 289V153C621.516 151.4 622.116 150 623.316 148.8C624.516 147.6 625.916 147 627.516 147C629.249 147 630.649 147.6 631.716 148.8C632.916 150 633.516 151.4 633.516 153V289ZM759.656 243.8C759.656 253.933 757.456 263.067 753.056 271.2C748.656 279.2 742.656 285.533 735.056 290.2C727.456 294.733 718.79 297 709.056 297C699.59 297 690.99 294.733 683.256 290.2C675.656 285.533 669.59 279.2 665.056 271.2C660.656 263.067 658.456 253.933 658.456 243.8C658.456 233.533 660.656 224.4 665.056 216.4C669.59 208.4 675.656 202.067 683.256 197.4C690.99 192.733 699.59 190.4 709.056 190.4C718.79 190.4 727.456 192.733 735.056 197.4C742.656 202.067 748.656 208.4 753.056 216.4C757.456 224.4 759.656 233.533 759.656 243.8ZM747.656 243.8C747.656 235.667 745.99 228.467 742.656 222.2C739.323 215.8 734.723 210.8 728.856 207.2C723.123 203.467 716.523 201.6 709.056 201.6C701.856 201.6 695.323 203.467 689.456 207.2C683.59 210.8 678.923 215.8 675.456 222.2C672.123 228.467 670.456 235.667 670.456 243.8C670.456 251.933 672.123 259.133 675.456 265.4C678.923 271.667 683.59 276.667 689.456 280.4C695.323 284 701.856 285.8 709.056 285.8C716.523 285.8 723.123 284 728.856 280.4C734.723 276.667 739.323 271.667 742.656 265.4C745.99 259.133 747.656 251.933 747.656 243.8ZM827.759 190.4C833.759 190.4 839.293 191.467 844.359 193.6C849.426 195.6 853.826 198.267 857.559 201.6C861.426 204.8 864.426 208.267 866.559 212C868.693 215.6 869.759 219.067 869.759 222.4L866.359 217.6V199C866.359 197.267 866.893 195.8 867.959 194.6C869.159 193.4 870.626 192.8 872.359 192.8C874.226 192.8 875.693 193.4 876.759 194.6C877.826 195.8 878.359 197.267 878.359 199V285.6C878.359 296.267 876.159 305.267 871.759 312.6C867.359 319.933 861.359 325.467 853.759 329.2C846.293 333.067 837.759 335 828.159 335C823.493 335 818.559 334.4 813.359 333.2C808.293 332 803.893 330.467 800.159 328.6C796.559 326.733 794.559 324.8 794.159 322.8C793.093 321.6 792.559 320.4 792.559 319.2C792.693 318.133 793.293 317.2 794.359 316.4C795.693 315.467 797.093 315.333 798.559 316C800.026 316.8 802.226 317.8 805.159 319C806.493 319.4 808.293 320 810.559 320.8C812.826 321.6 815.493 322.267 818.559 322.8C821.759 323.467 825.093 323.8 828.559 323.8C840.559 323.8 849.826 320.333 856.359 313.4C863.026 306.6 866.359 297.6 866.359 286.4V267.2L868.559 267.8C867.359 272.6 865.359 276.8 862.559 280.4C859.893 284 856.693 287.067 852.959 289.6C849.226 292 845.159 293.8 840.759 295C836.493 296.333 832.226 297 827.959 297C818.759 297 810.493 294.667 803.159 290C795.826 285.333 789.959 279 785.559 271C781.293 263 779.159 253.867 779.159 243.6C779.159 233.467 781.293 224.4 785.559 216.4C789.959 208.267 795.759 201.933 802.959 197.4C810.293 192.733 818.559 190.4 827.759 190.4ZM829.159 201.6C821.826 201.6 815.226 203.467 809.359 207.2C803.626 210.8 799.093 215.8 795.759 222.2C792.559 228.467 790.959 235.6 790.959 243.6C790.959 251.6 792.559 258.8 795.759 265.2C799.093 271.6 803.626 276.667 809.359 280.4C815.226 284 821.826 285.8 829.159 285.8C836.493 285.8 843.026 284 848.759 280.4C854.493 276.8 859.026 271.867 862.359 265.6C865.693 259.2 867.359 251.867 867.359 243.6C867.359 235.333 865.693 228.067 862.359 221.8C859.026 215.4 854.493 210.467 848.759 207C843.026 203.4 836.493 201.6 829.159 201.6Z" fill="white"/>
</svg>
